# xmcd CD database file
#
# Track frame offsets:
#	150
#	16290
#	32045
#	46457
#	61839
#	72214
#	88180
#	102044
#	115078
#	126522
#	139544
#	152793
#	166576
#	179326
#	193038
#	204153
#	218141
#	230460
#	244936
#	257232
#	272313
#
# Disc length: 3792 seconds
#
# Revision: 6
# Processed by: cddbd v1.5.2PL0 Copyright (c) Steve Scherf et al.
# Submitted via: CDex 1.51
#
DISCID=1f0ece15
DTITLE=Glenn Miller - Vol.07 - In The Mood
DYEAR=1900
DGENRE=Jazz
TTITLE0=The Cradle Song
TTITLE1=Sweeter Than The Sweetest
TTITLE2=I Guess I'll Have To Dream The Rest
TTITLE3=Rake The ''A'' Train
TTITLE4=Peekaboo To You
TTITLE5=The Angels Came Thru
TTITLE6=Under Blue Candian Skies
TTITLE7=The Cowboy Serenade  (While I'm Rollin' My Last Cigarette)
TTITLE8=You And I
TTITLE9=Adios
TTITLE10=It Happened In Sun Valley
TTITLE11=I'm Thrilled
TTITLE12=The Kiss Polka
TTITLE13=Delilah
TTITLE14=From One Love To Another  (Danza Lucumi)
TTITLE15=Elmer's Tune
TTITLE16=Says Who ¿ Says Who ¿ Says You, Says I
TTITLE17=Orange Blossom Lane
TTITLE18=Dear Arabella
TTITLE19=The Man In The Moon
TTITLE20=Ma-Ma-Maria  (Fee-dle, Ee-dle-lee, Fee-dle, Ee-dle-lee)
EXTD=Vol 7 of a 10 CD box\n\n(P) 2000 Trumpets Of Jericho Ltd.\n(C) 2000 TIM The International Music Company AG\n\nOder No. 204277\n
EXTT0=(Johannes Brahms]\n
EXTT1=
EXTT2=
EXTT3=
EXTT4=
EXTT5=
EXTT6=
EXTT7=
EXTT8=
EXTT9=
EXTT10=
EXTT11=
EXTT12=
EXTT13=
EXTT14=
EXTT15=
EXTT16=
EXTT17=
EXTT18=
EXTT19=
EXTT20=
PLAYORDER=
